<?xml version="1.0" encoding="utf-8"?>
<!-- Generator: Adobe Illustrator 17.1.0, SVG Export Plug-In . SVG Version: 6.00 Build 0)  -->
<!DOCTYPE svg PUBLIC "-//W3C//DTD SVG 1.1//EN" "http://www.w3.org/Graphics/SVG/1.1/DTD/svg11.dtd">
<svg version="1.1" id="Layer_1" xmlns="http://www.w3.org/2000/svg" xmlns:xlink="http://www.w3.org/1999/xlink" x="0px" y="0px"
	 viewBox="0 0 70 210" enable-background="new 0 0 70 210" xml:space="preserve">
<g id="Ebene_1">
</g>
<g>
	<g>
		<path fill="#C59E5A" d="M17.6,30.9"/>
	</g>
	<g>
		<path fill="#C59E5A" d="M52.3,30.7"/>
	</g>
	<path fill="none" stroke="#FFFFFF" stroke-width="3" stroke-linecap="round" stroke-linejoin="round" stroke-miterlimit="10" d="
		M5,32.4l29.4-20.8c0.3-0.2,0.9-0.2,1.2,0L65,32.4"/>
	<g>
		<path fill="#C59E5A" d="M17.6,100.9"/>
	</g>
	<g>
		<path fill="#C59E5A" d="M52.3,100.7"/>
	</g>
	<path fill="none" stroke="#FFFFFF" stroke-width="3" stroke-linecap="round" stroke-miterlimit="10" d="M5,102.4l29.4-20.8
		c0.3-0.2,0.9-0.2,1.2,0L65,102.4"/>
	<path fill="none" stroke="#FFFFFF" stroke-width="3" stroke-linecap="round" stroke-miterlimit="10" d="M55,86.9L35.6,73.1
		c-0.3-0.2-0.9-0.2-1.2,0L15,86.9"/>
	<g>
		<path fill="#C59E5A" d="M17.6,170.9"/>
	</g>
	<g>
		<path fill="#C59E5A" d="M52.3,170.7"/>
	</g>
	<path fill="none" stroke="#FFFFFF" stroke-width="3" stroke-linecap="round" stroke-miterlimit="10" d="M5,172.4l29.4-20.8
		c0.3-0.2,0.9-0.2,1.2,0L65,172.4"/>
	<path fill="none" stroke="#4690F9" stroke-width="3" stroke-linecap="round" stroke-miterlimit="10" d="M55,156.9l-19.4-13.8
		c-0.3-0.2-0.9-0.2-1.2,0L15,156.9"/>
	<g>
		<path fill="#FFFFFF" d="M22.9,38.1c0-0.2-0.2-0.6-0.8-0.6h-1.4v1.1h1.4C22.7,38.7,22.9,38.4,22.9,38.1z"/>
		<path fill="#FFFFFF" d="M34.4,45.8c-2.3,0-3.3,1.9-3.2,3.5c0,1.6,0.9,3.3,3.2,3.3c2.3,0,3.2-1.7,3.2-3.3
			C37.6,47.7,36.7,45.8,34.4,45.8z"/>
		<path fill="#FFFFFF" d="M45.4,46.1h-2.8v3.5h2.8C47.7,49.6,47.7,46.1,45.4,46.1z"/>
		<path fill="#FFFFFF" d="M23,40.1c0-0.4-0.5-0.7-0.9-0.7h-1.4v1.3h1.4C22.5,40.7,23,40.6,23,40.1z"/>
		<polygon fill="#FFFFFF" points="26.8,37.7 25.9,39.8 27.7,39.8 		"/>
		<path fill="#FFFFFF" d="M69.8,43.5L35.6,19.1c-0.3-0.2-0.9-0.2-1.2,0L0.2,43.5c-0.3,0.2-0.3,0.6,0,0.9l34.2,24.4
			c0.3,0.2,0.9,0.2,1.2,0l34.2-24.4C70.1,44.1,70.1,43.7,69.8,43.5z M40.8,36.7c1.4,0,2.6,0,4,0v0.8h-1.6v4.1h-0.9v-4.1h-1.6V36.7z
			 M34.5,36.7h0.9v2.1l1.9-2.1h1.1v0l-2.2,2.3l2.4,2.5v0.1h-1.1l-2.1-2.2v2.2h-0.9V36.7z M32.1,36.6c0.7,0,1.3,0.3,1.8,0.7l-0.6,0.6
			c-0.3-0.3-0.8-0.5-1.2-0.5c-1.2,0-1.7,0.9-1.7,1.7c0,0.8,0.5,1.7,1.7,1.7c0.4,0,0.9-0.2,1.2-0.5l0.6,0.6c-0.5,0.5-1.2,0.7-1.9,0.7
			c-1.8,0-2.6-1.3-2.6-2.5C29.5,37.9,30.3,36.6,32.1,36.6z M26.3,36.7h1l2.2,4.9h-1l-0.4-0.9h-2.6l-0.4,0.9h-1L26.3,36.7z
			 M19.8,36.7c0.8,0,1.5,0,2.3,0c1,0,1.7,0.4,1.7,1.4c0,0.4-0.2,0.7-0.6,0.9c0.6,0.2,0.8,0.8,0.8,1.1c0,1.1-0.8,1.4-1.8,1.4
			c-0.8,0-1.5,0-2.3,0V36.7z M28.7,46h-3.1v8.1h-1.8V46h-3.1v-1.7c2.8,0,5.2,0,8.1,0V46z M34.4,54.4c-3.4,0-5-2.5-5-5.1
			c0-2.6,1.7-5.2,5-5.2c3.4,0,5.1,2.6,5,5.2C39.4,51.8,37.8,54.4,34.4,54.4z M45.4,51.2h-2.8v2.9h-1.8v-9.8c1.5,0,3.1,0,4.6,0
			C50.2,44.3,50.2,51.2,45.4,51.2z M47.7,41.7c-1.7,0-2.5-1.2-2.5-2.5c0-1.3,0.8-2.6,2.5-2.6c1.7,0,2.5,1.3,2.5,2.6
			C50.2,40.4,49.4,41.7,47.7,41.7z"/>
		<path fill="#FFFFFF" d="M47.7,37.4c-1.2,0-1.6,0.9-1.6,1.8c0,0.8,0.5,1.7,1.6,1.7s1.6-0.9,1.6-1.7C49.3,38.4,48.8,37.4,47.7,37.4z
			"/>
	</g>
	<g>
		<path fill="#FFFFFF" d="M22.9,108.1c0-0.2-0.2-0.6-0.8-0.6h-1.4v1.1h1.4C22.7,108.7,22.9,108.4,22.9,108.1z"/>
		<path fill="#FFFFFF" d="M34.4,115.8c-2.3,0-3.3,1.9-3.2,3.5c0,1.6,0.9,3.3,3.2,3.3c2.3,0,3.2-1.7,3.2-3.3
			C37.6,117.7,36.7,115.8,34.4,115.8z"/>
		<path fill="#FFFFFF" d="M45.4,116.1h-2.8v3.5h2.8C47.7,119.6,47.7,116.1,45.4,116.1z"/>
		<path fill="#FFFFFF" d="M23,110.1c0-0.4-0.5-0.7-0.9-0.7h-1.4v1.3h1.4C22.5,110.7,23,110.6,23,110.1z"/>
		<polygon fill="#FFFFFF" points="26.8,107.7 25.9,109.8 27.7,109.8 		"/>
		<path fill="#FFFFFF" d="M69.8,113.5L35.6,89.1c-0.3-0.2-0.9-0.2-1.2,0L0.2,113.5c-0.3,0.2-0.3,0.6,0,0.9l34.2,24.4
			c0.3,0.2,0.9,0.2,1.2,0l34.2-24.4C70.1,114.1,70.1,113.7,69.8,113.5z M40.8,106.7c1.4,0,2.6,0,4,0v0.8h-1.6v4.1h-0.9v-4.1h-1.6
			V106.7z M34.5,106.7h0.9v2.1l1.9-2.1h1.1v0l-2.2,2.3l2.4,2.5v0.1h-1.1l-2.1-2.2v2.2h-0.9V106.7z M32.1,106.6
			c0.7,0,1.3,0.3,1.8,0.7l-0.6,0.6c-0.3-0.3-0.8-0.5-1.2-0.5c-1.2,0-1.7,0.9-1.7,1.7c0,0.8,0.5,1.7,1.7,1.7c0.4,0,0.9-0.2,1.2-0.5
			l0.6,0.6c-0.5,0.5-1.2,0.7-1.9,0.7c-1.8,0-2.6-1.3-2.6-2.5C29.5,107.9,30.3,106.6,32.1,106.6z M26.3,106.7h1l2.2,4.9h-1l-0.4-0.9
			h-2.6l-0.4,0.9h-1L26.3,106.7z M19.8,106.7c0.8,0,1.5,0,2.3,0c1,0,1.7,0.4,1.7,1.4c0,0.4-0.2,0.7-0.6,0.9c0.6,0.2,0.8,0.8,0.8,1.1
			c0,1.1-0.8,1.4-1.8,1.4c-0.8,0-1.5,0-2.3,0V106.7z M28.6,116h-3.1v8.1h-1.8V116h-3.1v-1.7c2.8,0,5.2,0,8.1,0V116z M34.4,124.4
			c-3.4,0-5-2.5-5-5.1c0-2.6,1.7-5.2,5-5.2c3.4,0,5.1,2.6,5,5.2C39.4,121.8,37.8,124.4,34.4,124.4z M45.4,121.2h-2.8v2.9h-1.8v-9.8
			c1.5,0,3.1,0,4.6,0C50.2,114.3,50.2,121.2,45.4,121.2z M47.7,111.7c-1.7,0-2.5-1.2-2.5-2.5c0-1.3,0.8-2.6,2.5-2.6
			c1.7,0,2.5,1.3,2.5,2.6C50.2,110.4,49.4,111.7,47.7,111.7z"/>
		<path fill="#FFFFFF" d="M47.7,107.4c-1.2,0-1.6,0.9-1.6,1.8c0,0.8,0.5,1.7,1.6,1.7s1.6-0.9,1.6-1.7
			C49.3,108.4,48.8,107.4,47.7,107.4z"/>
	</g>
	<g>
		<path fill="#FFFFFF" d="M22.9,178.1c0-0.2-0.2-0.6-0.8-0.6h-1.4v1.1h1.4C22.7,178.7,22.9,178.4,22.9,178.1z"/>
		<path fill="#FFFFFF" d="M34.4,185.8c-2.3,0-3.3,1.9-3.2,3.5c0,1.6,0.9,3.3,3.2,3.3c2.3,0,3.2-1.7,3.2-3.3
			C37.6,187.7,36.7,185.8,34.4,185.8z"/>
		<path fill="#FFFFFF" d="M45.4,186.1h-2.8v3.5h2.8C47.7,189.5,47.7,186.1,45.4,186.1z"/>
		<path fill="#FFFFFF" d="M23,180.1c0-0.4-0.5-0.7-0.9-0.7h-1.4v1.3h1.4C22.5,180.7,23,180.6,23,180.1z"/>
		<polygon fill="#FFFFFF" points="26.8,177.7 25.9,179.8 27.7,179.8 		"/>
		<path fill="#FFFFFF" d="M69.8,183.5l-34.2-24.4c-0.3-0.2-0.9-0.2-1.2,0L0.2,183.5c-0.3,0.2-0.3,0.6,0,0.9l34.2,24.4
			c0.3,0.2,0.9,0.2,1.2,0l34.2-24.4C70.1,184.1,70.1,183.7,69.8,183.5z M40.8,176.7c1.4,0,2.6,0,4,0v0.8h-1.6v4.1h-0.9v-4.1h-1.6
			V176.7z M34.5,176.7h0.9v2.1l1.9-2.1h1.1v0l-2.2,2.3l2.4,2.5v0.1h-1.1l-2.1-2.2v2.2h-0.9V176.7z M32.1,176.6
			c0.7,0,1.3,0.3,1.8,0.7l-0.6,0.6c-0.3-0.3-0.8-0.5-1.2-0.5c-1.2,0-1.7,0.9-1.7,1.7c0,0.8,0.5,1.7,1.7,1.7c0.4,0,0.9-0.2,1.2-0.5
			l0.6,0.6c-0.5,0.5-1.2,0.7-1.9,0.7c-1.8,0-2.6-1.3-2.6-2.5C29.5,177.9,30.3,176.6,32.1,176.6z M26.3,176.7h1l2.2,4.9h-1l-0.4-0.9
			h-2.6l-0.4,0.9h-1L26.3,176.7z M19.8,176.7c0.8,0,1.5,0,2.3,0c1,0,1.7,0.4,1.7,1.4c0,0.4-0.2,0.7-0.6,0.9c0.6,0.2,0.8,0.8,0.8,1.1
			c0,1.1-0.8,1.4-1.8,1.4c-0.8,0-1.5,0-2.3,0V176.7z M28.6,186h-3.1v8.1h-1.8V186h-3.1v-1.7c2.8,0,5.2,0,8.1,0V186z M34.4,194.4
			c-3.4,0-5-2.5-5-5.1c0-2.6,1.7-5.2,5-5.2c3.4,0,5.1,2.6,5,5.2C39.4,191.8,37.8,194.4,34.4,194.4z M45.4,191.2h-2.8v2.9h-1.8v-9.8
			c1.5,0,3.1,0,4.6,0C50.2,184.3,50.2,191.2,45.4,191.2z M47.7,181.7c-1.7,0-2.5-1.2-2.5-2.5c0-1.3,0.8-2.6,2.5-2.6
			c1.7,0,2.5,1.3,2.5,2.6C50.2,180.4,49.4,181.7,47.7,181.7z"/>
		<path fill="#FFFFFF" d="M47.7,177.4c-1.2,0-1.6,0.9-1.6,1.8c0,0.8,0.5,1.7,1.6,1.7s1.6-0.9,1.6-1.7
			C49.3,178.4,48.8,177.4,47.7,177.4z"/>
	</g>
</g>
</svg>
